<svg xmlns="http://www.w3.org/2000/svg" width="40.485" height="29.532" viewBox="0 0 40.485 29.532">
  <path id="Caminho_9022" data-name="Caminho 9022" d="M282.315,80.29H250.1l8.057-9.506a1.988,1.988,0,0,0-3.034-2.57l-10.83,12.779a1.879,1.879,0,0,0-.107.2,1.935,1.935,0,0,0-.171.258c-.022.05-.038.1-.056.151a1.961,1.961,0,0,0-.072.3,1.878,1.878,0,0,0-.05.3c0,.028-.016.052-.016.082s.014.05.016.078a1.84,1.84,0,0,0,.05.3,1.689,1.689,0,0,0,.072.3,1.317,1.317,0,0,0,.058.155,1.782,1.782,0,0,0,.169.256,1.878,1.878,0,0,0,.107.2l10.83,12.779a1.988,1.988,0,0,0,3.034-2.57l-8.055-9.5h32.217a1.988,1.988,0,0,0,0-3.976Z" transform="translate(-243.818 -67.509)" fill="#fff"/>
</svg>
