<?xml version="1.0" encoding="iso-8859-1"?>
<!-- Generator: Adobe Illustrator 19.0.0, SVG Export Plug-In . SVG Version: 6.00 Build 0)  -->
<svg version="1.1" id="Layer_1" xmlns="http://www.w3.org/2000/svg" xmlns:xlink="http://www.w3.org/1999/xlink" x="0px" y="0px"
	 viewBox="0 0 330 330" style="enable-background:new 0 0 330 330;" xml:space="preserve">
<path id="XMLID_236_" d="M275,120h-55.021V55.428C219.979,24.865,195.315,0,165,0c-30.314,0-54.978,24.865-54.978,55.428V120H55
	c-8.284,0-15,6.716-15,15v180c0,8.284,6.716,15,15,15h220c8.284,0,15-6.716,15-15V135C290,126.716,283.284,120,275,120z
	 M125.022,150c8.284,0,15-6.716,15-15V55.428C140.023,41.407,151.227,30,165,30c13.773,0,24.979,11.407,24.979,25.428V135
	c0,8.284,6.716,15,15,15H260v49.996H70V150H125.022z M219.979,300v-35.002c0-8.284-6.716-15-15-15s-15,6.716-15,15V300h-50v-35.002
	c0-8.284-6.716-15-15-15s-15,6.716-15,15V300H70v-70.004h190V300H219.979z"/>
<g>
</g>
<g>
</g>
<g>
</g>
<g>
</g>
<g>
</g>
<g>
</g>
<g>
</g>
<g>
</g>
<g>
</g>
<g>
</g>
<g>
</g>
<g>
</g>
<g>
</g>
<g>
</g>
<g>
</g>
</svg>
