<svg id="danger-signal-svgrepo-com" xmlns="http://www.w3.org/2000/svg" width="41.126" height="41.126" viewBox="0 0 41.126 41.126">
  <path id="Caminho_9012" data-name="Caminho 9012" d="M330.836,92.891l-4.458,7.885a7.614,7.614,0,0,1,2.947,5.279h8.916C337.951,99.481,335.083,95.662,330.836,92.891Z" transform="translate(-301.452 -85.797)" fill="#fcfcfd"/>
  <path id="Caminho_9013" data-name="Caminho 9013" d="M154.874,344.788a7.447,7.447,0,0,1-4.838-1.809l-4.5,7.751a16.322,16.322,0,0,0,18.114.361l-4.437-7.7A7.466,7.466,0,0,1,154.874,344.788Z" transform="translate(-134.426 -316.785)" fill="#fcfcfd"/>
  <path id="Caminho_9014" data-name="Caminho 9014" d="M65.794,101.411l-4.445-7.535c-4.326,2.759-7.258,6.515-7.551,13.088h8.916A8.1,8.1,0,0,1,65.794,101.411Z" transform="translate(-49.689 -86.707)" fill="#fcfcfd"/>
  <circle id="Elipse_16" data-name="Elipse 16" cx="4.067" cy="4.067" r="4.067" transform="translate(16.105 16.496)" fill="#fcfcfd"/>
  <path id="Caminho_9015" data-name="Caminho 9015" d="M20.563,0A20.563,20.563,0,1,0,41.126,20.563,20.586,20.586,0,0,0,20.563,0Zm0,39.666a19.1,19.1,0,1,1,19.1-19.1A19.124,19.124,0,0,1,20.563,39.666Z" fill="#fcfcfd"/>
</svg>
