<svg xmlns="http://www.w3.org/2000/svg" width="45.313" height="66.437" viewBox="0 0 45.313 66.437">
  <g id="Grupo_16101" data-name="Grupo 16101" transform="translate(-1119 -306)">
    <g id="Grupo_16075" data-name="Grupo 16075" transform="translate(2 -2)">
      <rect id="Retângulo_6329" data-name="Retângulo 6329" width="16" height="44" rx="5" transform="translate(1117 320)" fill="#fff"/>
      <g id="arrow-up-svgrepo-com" transform="translate(1143.978 302.614) rotate(45)">
        <path id="Caminho_9011" data-name="Caminho 9011" d="M21.6,10.258,15.47.5a.831.831,0,0,0-1.528,0L7.809,10.258c-.422.671-.127,1.128.658,1.019l2.186-.356a1.216,1.216,0,0,1,1.422,1.24v6.717a1.436,1.436,0,0,0,1.435,1.436H15.9a1.435,1.435,0,0,0,1.436-1.436V12.161a1.217,1.217,0,0,1,1.422-1.24l2.189.356C21.731,11.386,22.026,10.929,21.6,10.258Z" transform="translate(0 0)" fill="#fcfcfd"/>
      </g>
      <g id="arrow-up-svgrepo-com-2" data-name="arrow-up-svgrepo-com" transform="translate(1163.49 355.56) rotate(120)">
        <path id="Caminho_9011-2" data-name="Caminho 9011" d="M21.6,10.258,15.47.5a.831.831,0,0,0-1.528,0L7.809,10.258c-.422.671-.127,1.128.658,1.019l2.186-.356a1.216,1.216,0,0,1,1.422,1.24v6.717a1.436,1.436,0,0,0,1.435,1.436H15.9a1.435,1.435,0,0,0,1.436-1.436V12.161a1.217,1.217,0,0,1,1.422-1.24l2.189.356C21.731,11.386,22.026,10.929,21.6,10.258Z" transform="translate(0 0)" fill="#fcfcfd"/>
      </g>
      <g id="arrow-up-svgrepo-com-3" data-name="arrow-up-svgrepo-com" transform="translate(1162.313 327.383) rotate(90)">
        <path id="Caminho_9011-3" data-name="Caminho 9011" d="M21.6,10.258,15.47.5a.831.831,0,0,0-1.528,0L7.809,10.258c-.422.671-.127,1.128.658,1.019l2.186-.356a1.216,1.216,0,0,1,1.422,1.24v6.717a1.436,1.436,0,0,0,1.435,1.436H15.9a1.435,1.435,0,0,0,1.436-1.436V12.161a1.217,1.217,0,0,1,1.422-1.24l2.189.356C21.731,11.386,22.026,10.929,21.6,10.258Z" transform="translate(0 0)" fill="#fcfcfd"/>
      </g>
    </g>
  </g>
</svg>
