<svg xmlns="http://www.w3.org/2000/svg" width="28.423" height="28.501" viewBox="0 0 28.423 28.501">
  <g id="edit-svgrepo-com" transform="translate(-0.672 0)">
    <g id="Grupo_16086" data-name="Grupo 16086" transform="translate(0.672 0)">
      <path id="Caminho_9017" data-name="Caminho 9017" d="M75.323,24.365,82.515,21.4a4,4,0,0,0,.482-.36L94.843,6.6a1.292,1.292,0,0,0-.18-1.691L89.039.256a1.154,1.154,0,0,0-1.632.18L75.5,14.873a2.161,2.161,0,0,0-.244.546l-1.51,7.674C73.673,24.406,74.724,24.633,75.323,24.365ZM88.435,2.847,92.24,5.99,81.917,18.6l-3.77-3.12ZM77.211,17.83l2.579,2.138-3.323,1.371Z" transform="translate(-69.499 0)" fill="#5a625b"/>
      <path id="Caminho_9018" data-name="Caminho 9018" d="M27.886,386.186H7.582s-4.212.2-4.369-.883c0-.058-.1-.325.442-.988a1.22,1.22,0,0,0-.122-1.691,1.22,1.22,0,0,0-1.691.122c-1.15,1.388-1.452,2.6-.906,3.689,1.481,2.76,6.466,2.109,6.7,2.167H27.886a1.208,1.208,0,1,0,0-2.417Z" transform="translate(-0.672 -360.13)" fill="#5a625b"/>
    </g>
  </g>
</svg>
