<svg id="merge-svgrepo-com" xmlns="http://www.w3.org/2000/svg" width="22.151" height="22.151" viewBox="0 0 22.151 22.151">
  <g id="Grupo_16061" data-name="Grupo 16061">
    <g id="Grupo_16060" data-name="Grupo 16060">
      <path id="Caminho_8986" data-name="Caminho 8986" d="M130.769,13.845V0H128V14.768h2.769v1.846h13.845V14.768H131.692A.923.923,0,0,1,130.769,13.845Z" transform="translate(-122.462)" fill="#5a625b"/>
      <path id="Caminho_8987" data-name="Caminho 8987" d="M245.743,7.384h-6.461V.923A.923.923,0,0,0,238.359,0h-3.692V12.922h12V8.307A.923.923,0,0,0,245.743,7.384Z" transform="translate(-224.514)" fill="#5a625b"/>
      <path id="Caminho_8988" data-name="Caminho 8988" d="M0,.923V13.845a.923.923,0,0,0,.923.923H3.692V0H.923A.923.923,0,0,0,0,.923Z" fill="#5a625b"/>
      <path id="Caminho_8989" data-name="Caminho 8989" d="M192,429.436a.923.923,0,0,0,.923.923h12a.923.923,0,0,0,.923-.923v-2.769H192Z" transform="translate(-183.693 -408.207)" fill="#5a625b"/>
    </g>
  </g>
</svg>
