<svg xmlns="http://www.w3.org/2000/svg" width="22.489" height="40.287" viewBox="0 0 22.489 40.287">
  <g id="help-sing-svgrepo-com" transform="translate(-104.841)">
    <path id="Caminho_9008" data-name="Caminho 9008" d="M116.085,0a11.257,11.257,0,0,0-11.244,11.246,3.062,3.062,0,1,0,6.124,0,5.12,5.12,0,1,1,5.12,5.12,3.063,3.063,0,0,0-3.062,3.062V26.34a3.062,3.062,0,0,0,6.124,0V22.066A11.246,11.246,0,0,0,116.085,0Z" fill="#fcfcfd"/>
    <path id="Caminho_9009" data-name="Caminho 9009" d="M191.131,373.7a4.283,4.283,0,1,0,4.283,4.285A4.284,4.284,0,0,0,191.131,373.7Z" transform="translate(-75.045 -341.978)" fill="#fcfcfd"/>
  </g>
</svg>
