<svg xmlns="http://www.w3.org/2000/svg" xmlns:xlink="http://www.w3.org/1999/xlink" width="262.178" height="162.112" viewBox="0 0 262.178 162.112">
  <defs>
    <clipPath id="clip-path">
      <path id="Caminho_574" data-name="Caminho 574" d="M100.146,151.03l.229-.688c1.415-4.129,3.441-11.546,3.441-11.546s2.064,7.417,3.478,11.546l.231.688Zm6.461-15.9a1.611,1.611,0,0,0-1.415-1.033h-2.714a1.613,1.613,0,0,0-1.415,1.033L92.614,159.9a.713.713,0,0,0,.688,1.033H95.71a1.611,1.611,0,0,0,1.415-1.033s.421-1.262,1.644-4.74H108.9c1.185,3.478,1.644,4.74,1.644,4.74a1.561,1.561,0,0,0,1.376,1.033h2.447c.688,0,.8-.574.65-1.033ZM89.249,145.449H79.615a1.028,1.028,0,0,0-1.033,1.033v2.1a1,1,0,0,0,1.033,1h6.309v6.308a19.626,19.626,0,0,1-6.462,1.072c-5.161,0-8.679-3.938-8.679-9.445,0-5.734,3.67-9.329,9.023-9.329a18.916,18.916,0,0,1,6.537,1.148,1.378,1.378,0,0,0,1.836-.688l.725-1.836c.307-.727-.153-1.07-.917-1.338a30.246,30.246,0,0,0-8.526-1.529c-7.493,0-13,6.078-13,13.572s5.506,13.573,13,13.573a28.136,28.136,0,0,0,8.908-1.568,2.541,2.541,0,0,0,1.873-2.714V146.482A1.02,1.02,0,0,0,89.249,145.449ZM50.826,151.03l.229-.688C52.47,146.213,54.5,138.8,54.5,138.8s2.065,7.417,3.48,11.546l.229.688Zm6.462-15.9a1.615,1.615,0,0,0-1.415-1.033H53.157a1.615,1.615,0,0,0-1.415,1.033L43.293,159.9a.713.713,0,0,0,.689,1.033h2.408a1.615,1.615,0,0,0,1.415-1.033s.42-1.262,1.644-4.74H59.581c1.185,3.478,1.644,4.74,1.644,4.74a1.563,1.563,0,0,0,1.377,1.033h2.447c.688,0,.8-.574.649-1.033ZM29.416,156.8H25.593V138.223h3.823c7.417,0,9.253,4.817,9.253,9.253S36.833,156.8,29.416,156.8Zm0-22.711h-7a1.029,1.029,0,0,0-1.033,1.033V159.9a1.029,1.029,0,0,0,1.033,1.033h7c9.749,0,13.572-6.921,13.572-13.458S39.165,134.094,29.416,134.094Z" transform="translate(-21.386 -133.941)" fill="none"/>
    </clipPath>
    <clipPath id="clip-path-2">
      <path id="Caminho_575" data-name="Caminho 575" d="M92.039,125.253A71.419,71.419,0,0,1,77.9,111.265l39.452-13.3Zm26.548,8.716a50.585,50.585,0,0,1-23.346-6.6L120.459,98.9Zm28.566-7.092a45.356,45.356,0,0,1-23.74,7.388l-.886-35.757Zm17.733-16.648A34.008,34.008,0,0,1,151,124.908L125.482,98.015Zm3.008-3.716a26.855,26.855,0,0,0,2.8-7.046l-36.546-1.626Zm-92.4.637a31.957,31.957,0,0,1-3.153-7.683L111.346,97.4Z" transform="translate(-72.337 -97.399)" fill="none" clip-rule="evenodd"/>
    </clipPath>
  </defs>
  <g id="Grupo_45" data-name="Grupo 45" transform="translate(472.811 675)">
    <g id="Grupo_36" data-name="Grupo 36" transform="translate(-472.811 -675)">
      <path id="Caminho_571" data-name="Caminho 571" d="M69.977,95.877a7.089,7.089,0,0,0,.515-6.044c-1.179-3.456-1.551-1.553-.322-5.265.935,1.424.2,3.322,2.142,4.371,4.189-3.023-1.493-9.36,2.055-10.882,0,2.068.12,3.571,1.338,4.459,3.15-1.572,1.732-7.651,1.732-8.044A2.214,2.214,0,0,1,79.006,72c-.148,2.086-.291,2.859.615,4.488,1.581-.125,2.724-2.628,2.958-4.173.465-3.072-.964-4.371,1.867-5.836-.354,1.69-.685,3.156.135,4.636,1.733-.307,2.945-2.059,3.459-4.119.774-3.106-.254-4.072,2.615-5.36-.592,2.2-.9,1.972-.592,4.784,4.059-.488,4.539-6.222,4.846-6.939a3.526,3.526,0,0,1,2.374-1.665c-.994,1.429-1.2,2.464-1.179,4.646,2.324,0,3.563-1.631,4.373-3.142,1.317-2.46.678-3.768,3.519-4.348-.4,1.286-1.259,2.577-1.351,4.379a6.349,6.349,0,0,0,5.008-2.794c1.47-2.033.764-3.459,4.186-3.864-.811,1.587-2.343,2.317-2.075,4.43,6.888-.089,5.013-5.716,10.023-5.545-.992,1.29-2.543,1.852-2.675,4.153,7.514.242,5.026-4.5,10.424-4.27-.691,1.06-3.4,2.1-2.857,3.826a6.2,6.2,0,0,0,5.5-1c2.137-1.457,1.156-2.212,4.851-1.969-.951,1.535-2.748,1.107-3.347,3.36,1.753,1.135,3.986.676,5.724-.171,1.872-.911,2.5-2.337,5.116-1.135l-1.042.53a7.653,7.653,0,0,0-1.047.506c-.787.468-1.413.889-1.576,1.836,6.23,3.08,6.62-2.532,11.134.091-2.041.727-3.122.472-4.334,2,.707,1.465,3.327,1.852,5.191,1.555,2.441-.387,3.231-1.878,5.565.011-1.2.755-3.434.288-4.243,1.828.99,1.511,3.33,2.1,5.509,1.948,3.563-.252,3.016-.971,5.446,1.116-2.109.083-3.27-.493-4.939.852,1.408,3.542,7.524,2.49,8.284,2.685a4.009,4.009,0,0,1,2,1.787c-1.8-.285-2.974-.678-4.643.226.255,1.763,2.542,3.038,4.478,3.425,4.179.834,2.849-.646,5.168,2.465,0,0-4.634-1.6-4.672-.293-.068,2.363,2.844,3.682,4.958,4.139,4,.863,2.158.559,4.48,3.9.611.88-.276-.306.229.309.293.354.1.161.416.424-.8-2.337-3.077-5.729-4.356-7.742-11.643-18.331-35.422-29.43-57.414-26.587C94.518,54.3,77.132,67.794,68.49,87.353a7.956,7.956,0,0,0-1.034,4.794c.283,1.7,1.29,3.329,2.52,3.73" transform="translate(7.411 -50.942)" fill="#fcfcfd" fill-rule="evenodd"/>
      <path id="Caminho_572" data-name="Caminho 572" d="M123.328,54.321c-.553,1.358,1.4,2.473,2.083,3.93-3.047-.18-1.509-.555-4.121-2.74-1.525-1.277-3.254-1.355-5.5-.811.639,2.173,2.259,2.091,3,3.643-3.243.1-2.239-.841-4.467-2.132a5.675,5.675,0,0,0-5.509-.2c.015,2.143,2.836,2.226,3.608,3.316-3.664.47-2.708-.473-5.147-1.543-1.732-.761-4.582-.729-5.373.837.964,1.462,2.216,1.429,3.745,2.35a1.032,1.032,0,0,1-.473.319,1.893,1.893,0,0,1-.618.2,1.976,1.976,0,0,1-1.572-.2c-1.262-.53-4.594-2.948-7.49.211.613,1.19,2.225,1.385,3.387,1.831l.384.167a2.089,2.089,0,0,1,.19.089c-2.2,1.7-2.6-.021-5.049-.226-2.233-.185-4.031.533-4.747,2.054.968,1.246,2.852,1.181,4.511,1.343-2.1,2.13-2.781.553-5.5.61-1.946.039-4.112,1.073-4.417,2.747,1.28.968,2.639.639,4.4.8-1.579,2.307-2.662.883-5.457,1.265a4.347,4.347,0,0,0-3.751,3.158c1.5.824,2.821.341,4.556.182-1.13,2.563-2.527,1.3-5.174,2A4.542,4.542,0,0,0,75.394,81.3a8.963,8.963,0,0,0,4.5-.52c-.8,2.662-2.366,1.646-4.766,2.649a4.345,4.345,0,0,0-3.069,4.08c2.044.335,3.156-.48,4.634-1-.672,2.659-2.013,1.987-4.264,3.1a4.479,4.479,0,0,0-2.841,4.634c3.286-.031,4.9-1.768,6.035-4.28A51.407,51.407,0,0,1,79.063,83.2a59.053,59.053,0,0,1,9.18-11.181A51.626,51.626,0,0,1,116,59.074c16.83-2.333,34.237,4.652,44.174,16.027a55.391,55.391,0,0,1,6.457,8.679c.546.946,1.379,2.53,1.917,3.251-.278-1.067-.9-1.74-.994-2.867-.1-1.177,2.6-7.36-1.571-8.573l-1.055,3.865c-.236.626.065.148-.309.559-1.8-3.1-.192-2.5-.429-5.74-.122-1.69-1.356-3.747-2.94-3.865-.714,1.755-.537,2.592-.494,4.475-2.412-1.538-.852-2.912-1.481-5.713-.333-1.481-1.833-3.532-3.389-3.423l-.083,4.389c-2.408-.88-1.112-2.608-1.979-5.145a4.453,4.453,0,0,0-3.771-3.2,8.827,8.827,0,0,0,.576,4.526c-2.673-.865-1.683-2.22-2.618-4.617a4.523,4.523,0,0,0-4.35-3.13c.031,2.568.528,2.629,1.176,4.5-4.039-.489-1-6.6-7.937-6.841a8.446,8.446,0,0,0,1.756,4.329c-3.958.41-1.322-5.732-8.6-5.75.255,2.317,1.22,2.543,2,4.112-4.148-.091-2.571-5.766-8.723-4.605" transform="translate(8.795 -48.924)" fill="#fcfcfd" fill-rule="evenodd"/>
      <path id="Caminho_573" data-name="Caminho 573" d="M242.932,134.287h-3.308a1.021,1.021,0,0,0-1.054,1.016v24.358a1.02,1.02,0,0,0,1.054,1.015h3.308a1.01,1.01,0,0,0,1.015-1.015V135.3a1.011,1.011,0,0,0-1.015-1.016m-7.368,0h-3.5a1.539,1.539,0,0,0-1.353,1.016s-.865,2.405-3.233,9.4c-1.241,3.683-2.368,7.63-3.158,10.524-.789-2.895-1.917-6.841-3.156-10.524-2.369-6.992-3.233-9.4-3.233-9.4a1.539,1.539,0,0,0-1.355-1.016h-3.495a.706.706,0,0,0-.678,1.016l8.308,24.358a1.537,1.537,0,0,0,1.353,1.015h4.511a1.537,1.537,0,0,0,1.355-1.015l8.194-24.358C236.315,134.739,236.128,134.287,235.564,134.287Zm-36.386,16.052c.037-.037.037-.037.037-.075,1.239-3.683,2.368-7.631,3.158-10.526.789,2.895,1.953,6.843,3.194,10.526v.075Zm15.11,9.323L206.019,135.3a1.589,1.589,0,0,0-1.392-1.016h-4.472a1.589,1.589,0,0,0-1.392,1.016l-8.306,24.358a.7.7,0,0,0,.676,1.015h3.495a1.587,1.587,0,0,0,1.392-1.015s.376-1.129,1.428-4.135h9.887c1.015,3.007,1.428,4.135,1.428,4.135a1.537,1.537,0,0,0,1.353,1.015h3.534A.676.676,0,0,0,214.288,159.661Zm-27.252-25.374h-3.308a1.044,1.044,0,0,0-1.052,1.016v15.373L172.45,135.3a2.554,2.554,0,0,0-1.8-1.016h-2.519a1.011,1.011,0,0,0-1.013,1.016v24.358a1.009,1.009,0,0,0,1.013,1.015h3.309a1.042,1.042,0,0,0,1.052-1.015V145.039l9.7,14.622a2.336,2.336,0,0,0,1.691,1.015h3.158a1.01,1.01,0,0,0,1.015-1.015V135.3A1.011,1.011,0,0,0,187.035,134.287Zm-24.659,0h-3.309a1.021,1.021,0,0,0-1.052,1.016v24.358a1.02,1.02,0,0,0,1.052,1.015h3.309a1.011,1.011,0,0,0,1.015-1.015V135.3A1.012,1.012,0,0,0,162.376,134.287ZM150.46,143.76c0,2.142-.865,4.173-4.286,4.173H141.7v-8.458h4.472C149.6,139.476,150.46,141.655,150.46,143.76Zm2.668,11.954a10.492,10.492,0,0,0-3.2-4.135,8.343,8.343,0,0,0,5.789-8.308c0-4.773-3.233-8.984-9.549-8.984h-8.8a1.02,1.02,0,0,0-1.052,1.016v24.358a1.019,1.019,0,0,0,1.052,1.015h3.309a1.011,1.011,0,0,0,1.015-1.015v-6.578c3.683,0,5.036.376,6.2,3.119,1.015,2.33,1.5,3.459,1.5,3.459a1.733,1.733,0,0,0,1.465,1.015h3.347c.563,0,.826-.45.6-1.015C154.82,159.661,154.143,158.119,153.129,155.714Zm-21.463-10.563h-9.474a1,1,0,0,0-.977.977v3.233a1,1,0,0,0,.977.977H127.3v4.4a18.254,18.254,0,0,1-5.826.9c-4.474,0-7.48-3.347-7.48-8.158s3.007-8.119,7.48-8.119a19.746,19.746,0,0,1,6.955,1.241,1.676,1.676,0,0,0,1.992-1.052c.226-.6.45-1.166.676-1.766a1.6,1.6,0,0,0-1.129-2.181,22.555,22.555,0,0,0-8.495-1.467c-7.368,0-12.856,5.976-12.856,13.344s5.488,13.346,12.856,13.346c4.4,0,6.353-.865,9.173-1.654a2.56,2.56,0,0,0,2.029-2.708V146.128A1,1,0,0,0,131.665,145.151Zm-38.23,5.187c.039-.037.039-.037.039-.075,1.239-3.683,2.368-7.631,3.156-10.526.79,2.895,1.956,6.843,3.2,10.526v.075Zm15.112,9.323L100.278,135.3a1.589,1.589,0,0,0-1.392-1.016H94.414a1.589,1.589,0,0,0-1.392,1.016l-8.306,24.358a.7.7,0,0,0,.676,1.015h3.495a1.587,1.587,0,0,0,1.392-1.015s.376-1.129,1.428-4.135h9.887c1.015,3.007,1.428,4.135,1.428,4.135a1.537,1.537,0,0,0,1.353,1.015h3.534A.676.676,0,0,0,108.547,159.661Z" transform="translate(18.232 1.149)" fill="#fcfcfd"/>
      <g id="Grupo_33" data-name="Grupo 33" transform="translate(0 134.967)">
        <g id="Grupo_32" data-name="Grupo 32" clip-path="url(#clip-path)">
          <rect id="Ret창ngulo_1" data-name="Ret창ngulo 1" width="93.785" height="27.145" transform="translate(0 -0.001)" fill="#afbd00"/>
        </g>
      </g>
      <g id="Grupo_35" data-name="Grupo 35" transform="translate(82.853 75.545)">
        <g id="Grupo_34" data-name="Grupo 34" clip-path="url(#clip-path-2)">
          <rect id="Ret창ngulo_2" data-name="Ret창ngulo 2" width="98.361" height="36.867" transform="translate(0 0)" fill="#afbd00"/>
        </g>
      </g>
      <path id="Caminho_576" data-name="Caminho 576" d="M93.53,91.266h3.547a2.818,2.818,0,0,1,2.532,1.6l-3.994,2.278a.681.681,0,1,0,.673,1.184l3.6-2.051v3.617l-4.269,2.436a.681.681,0,0,0,.673,1.184l3.6-2.052v.623a2.815,2.815,0,0,1-2.807,2.807H93.53a2.815,2.815,0,0,1-2.808-2.807V97.011l3.573,2.038a.681.681,0,1,0,.672-1.185l-4.244-2.42V94.073a2.794,2.794,0,0,1,.8-1.958l2.7,1.538a.681.681,0,1,0,.673-1.184l-1.986-1.133a2.8,2.8,0,0,1,.623-.07" transform="translate(22.028 -25.694)" fill="#fcfcfd" fill-rule="evenodd"/>
      <path id="Caminho_577" data-name="Caminho 577" d="M115.291,91.266h-3.547a2.816,2.816,0,0,0-2.532,1.6l3.994,2.278a.681.681,0,1,1-.673,1.184l-3.6-2.051v3.617l4.27,2.436a.681.681,0,0,1-.673,1.184l-3.6-2.052v.623a2.815,2.815,0,0,0,2.808,2.807h3.547a2.815,2.815,0,0,0,2.807-2.807V97.011l-3.571,2.038a.682.682,0,0,1-.673-1.185l4.244-2.42V94.073a2.794,2.794,0,0,0-.8-1.958l-2.7,1.538a.681.681,0,1,1-.672-1.184l1.986-1.133a2.812,2.812,0,0,0-.623-.07" transform="translate(33.432 -25.694)" fill="#fcfcfd" fill-rule="evenodd"/>
      <path id="Caminho_578" data-name="Caminho 578" d="M100.52,88.92a1.4,1.4,0,1,1-1.4,1.4,1.4,1.4,0,0,1,1.4-1.4" transform="translate(27.288 -27.163)" fill="#fcfcfd" fill-rule="evenodd"/>
      <path id="Caminho_579" data-name="Caminho 579" d="M105.809,88.92a1.4,1.4,0,1,1-1.4,1.4,1.395,1.395,0,0,1,1.4-1.4" transform="translate(30.601 -27.163)" fill="#fcfcfd" fill-rule="evenodd"/>
      <path id="Caminho_580" data-name="Caminho 580" d="M104.4,81.949l-1.716,12a2.511,2.511,0,0,1,2.078-1.133H115.37a4.577,4.577,0,0,1,2.3.886l-1.675-11.755Zm.888,21.345h9.867a.8.8,0,0,1,.8.8h0a.8.8,0,0,1-.8.8h-9.867a.8.8,0,0,1-.8-.8h0A.8.8,0,0,1,105.289,103.294Zm0-3.153h9.867a.8.8,0,0,1,.8.8h0a.8.8,0,0,1-.8.8h-9.867a.8.8,0,0,1-.8-.8h0A.8.8,0,0,1,105.289,100.141Zm0,6.436h9.867a.8.8,0,0,1,.8.8h0a.8.8,0,0,1-.8.8h-9.867a.8.8,0,0,1-.8-.8h0A.8.8,0,0,1,105.289,106.577ZM93.731,94.149a3.692,3.692,0,0,0-3.119,3.709h11.032v11.23H118.72V97.858h10.934c0-2.285-1.429-3.443-3.908-3.776h-5.222l-1.838-12.051c1.807.32,2.068,1.737,1.772,3.547h3.415l-.262-2.61c-.153-1.421-1.79-2.148-3.547-2.086a2.493,2.493,0,0,0-2.758-2.034H103.156a3.177,3.177,0,0,0-2.76,2.034c-3.306.281-3.878,2.335-3.677,4.893h3.151c-.249-1.847-.026-3.4,1.74-3.973L99.97,94.149Z" transform="translate(21.959 -33.475)" fill="#fcfcfd" fill-rule="evenodd"/>
      <path id="Caminho_581" data-name="Caminho 581" d="M103.222,82.883a1.511,1.511,0,1,1-1.509,1.511,1.511,1.511,0,0,1,1.509-1.511" transform="translate(28.909 -30.943)" fill="#fcfcfd" fill-rule="evenodd"/>
      <path id="Caminho_582" data-name="Caminho 582" d="M107.249,88.177c-.824-4.311-5.874-3.678-6.617,0Z" transform="translate(28.233 -29.507)" fill="#fcfcfd" fill-rule="evenodd"/>
      <path id="Caminho_583" data-name="Caminho 583" d="M111.781,73.01a.628.628,0,1,1,1.251-.124,4.248,4.248,0,0,0,1.153,2.771,3.968,3.968,0,0,0,2.446.968.628.628,0,1,1-.107,1.25,5.154,5.154,0,0,1-3.205-1.307,5.443,5.443,0,0,1-1.537-3.558" transform="translate(35.211 -37.557)" fill="#fcfcfd"/>
      <path id="Caminho_584" data-name="Caminho 584" d="M109.706,73.037a.63.63,0,0,1,1.255.1,4.82,4.82,0,0,0,.244,1.907,7.364,7.364,0,0,0,2.252,3.208,5.872,5.872,0,0,0,3.117,1.459,2.458,2.458,0,0,0,.982-.1.63.63,0,1,1,.394,1.2,3.726,3.726,0,0,1-1.48.159,7.154,7.154,0,0,1-3.821-1.756,8.611,8.611,0,0,1-2.639-3.773,6.06,6.06,0,0,1-.3-2.407" transform="translate(33.902 -37.469)" fill="#fcfcfd"/>
      <path id="Caminho_585" data-name="Caminho 585" d="M107.794,72.932a.63.63,0,1,1,1.25.153,6.372,6.372,0,0,0,.037,1.746,10.208,10.208,0,0,0,2.695,5.238,8.865,8.865,0,0,0,5.236,2.851,6.6,6.6,0,0,0,1.851-.024.629.629,0,0,1,.192,1.242,7.967,7.967,0,0,1-2.2.034,10.117,10.117,0,0,1-6-3.241,11.489,11.489,0,0,1-3.02-5.908,7.612,7.612,0,0,1-.047-2.091" transform="translate(32.685 -37.52)" fill="#fcfcfd"/>
      <path id="Caminho_586" data-name="Caminho 586" d="M115.194,73.536l-.986,1.888,1.839-.87,2.233,2.1.87-2.972L116,70.466l-2.742.837Z" transform="translate(36.137 -38.718)" fill="#fcfcfd" fill-rule="evenodd"/>
      <path id="Caminho_587" data-name="Caminho 587" d="M118.689,75.957l-3.383-3.1,7.06-6.781,3.087,2.857Z" transform="translate(37.421 -41.468)" fill="#fcfcfd" fill-rule="evenodd"/>
      <path id="Caminho_588" data-name="Caminho 588" d="M125.916,76.648l-1.543,2-6.108-6.173L119.973,71Z" transform="translate(39.273 -38.383)" fill="#fcfcfd" fill-rule="evenodd"/>
      <path id="Caminho_589" data-name="Caminho 589" d="M119.757,71.159l6.11,5.856,1.445-1.609-6.108-5.779Z" transform="translate(40.208 -39.243)" fill="#fcfcfd" fill-rule="evenodd"/>
      <path id="Caminho_590" data-name="Caminho 590" d="M113.47,64.438l-1.839,1.411,6.239,6.4,1.773-1.609Z" transform="translate(35.12 -42.492)" fill="#fcfcfd" fill-rule="evenodd"/>
      <path id="Caminho_591" data-name="Caminho 591" d="M114.665,63.307l-1.56,1.116,6.042,6.206,1.609-1.445Z" transform="translate(36.043 -43.2)" fill="#fcfcfd" fill-rule="evenodd"/>
      <path id="Caminho_592" data-name="Caminho 592" d="M69.088,79.86c-8.77,41.361,21.777,64.593,38.422,68.442,17.484,4.043,40.54,2.878,56.38-13.336,8.723-8.927,16.31-22.374,17.1-42.136-2.35,19.8-9.467,33.422-19.7,41.9-6.573,5.448-13.907,9.947-21.455,11.968-12.243,3.275-24.626,1.745-32.059-.06-16.51-4.008-45.231-27.152-36.851-66.681-.05-1.535-1.566-.867-1.839-.1" transform="translate(7.511 -33.353)" fill="#fcfcfd" fill-rule="evenodd"/>
    </g>
  </g>
</svg>
