<svg xmlns="http://www.w3.org/2000/svg" width="40.46" height="40.46" viewBox="0 0 40.46 40.46">
  <g id="merge-svgrepo-com" transform="translate(40.46) rotate(90)">
    <g id="Grupo_16061" data-name="Grupo 16061">
      <g id="Grupo_16060" data-name="Grupo 16060">
        <path id="Caminho_8986" data-name="Caminho 8986" d="M133.058,25.288V0H128V26.973h5.058v3.372h25.288V26.973h-23.6A1.685,1.685,0,0,1,133.058,25.288Z" transform="translate(-117.885)" fill="#fcfcfd"/>
        <path id="Caminho_8987" data-name="Caminho 8987" d="M254.9,13.487H243.1V1.686A1.685,1.685,0,0,0,241.41,0h-6.743V23.6h21.916V15.173A1.685,1.685,0,0,0,254.9,13.487Z" transform="translate(-216.123)" fill="#fcfcfd"/>
        <path id="Caminho_8988" data-name="Caminho 8988" d="M0,1.686v23.6a1.685,1.685,0,0,0,1.686,1.686H6.743V0H1.686A1.685,1.685,0,0,0,0,1.686Z" fill="#fcfcfd"/>
        <path id="Caminho_8989" data-name="Caminho 8989" d="M192,431.725a1.685,1.685,0,0,0,1.686,1.686H215.6a1.685,1.685,0,0,0,1.686-1.686v-5.058H192Z" transform="translate(-176.827 -392.95)" fill="#fcfcfd"/>
      </g>
    </g>
  </g>
</svg>
