<svg xmlns="http://www.w3.org/2000/svg" width="38.851" height="41.103" viewBox="0 0 38.851 41.103">
  <g id="cog-svgrepo-com" transform="translate(-18.303 -16)">
    <path id="Caminho_9005" data-name="Caminho 9005" d="M164.686,168a7.535,7.535,0,1,0,7.535,7.535A7.535,7.535,0,0,0,164.686,168Zm0,12.331a4.8,4.8,0,1,1,4.8-4.8A4.8,4.8,0,0,1,164.686,180.331Z" transform="translate(-126.959 -138.984)" fill="#fcfcfd"/>
    <path id="Caminho_9006" data-name="Caminho 9006" d="M56.528,42.23l-2.72-2.239a16.534,16.534,0,0,0,0-6.879l2.72-2.239a1.708,1.708,0,0,0,.394-2.178L54.13,23.857a1.707,1.707,0,0,0-2.084-.748l-3.3,1.237a16.444,16.444,0,0,0-5.955-3.442l-.579-3.474A1.707,1.707,0,0,0,40.52,16H34.935a1.707,1.707,0,0,0-1.689,1.431l-.579,3.474a16.444,16.444,0,0,0-5.955,3.442l-3.3-1.237a1.707,1.707,0,0,0-2.084.748l-2.792,4.837a1.707,1.707,0,0,0,.395,2.178l2.72,2.239a16.534,16.534,0,0,0,0,6.879l-2.72,2.239a1.708,1.708,0,0,0-.394,2.178l2.793,4.837a1.707,1.707,0,0,0,2.084.748l3.3-1.237A16.444,16.444,0,0,0,32.667,52.2l.579,3.474A1.707,1.707,0,0,0,34.935,57.1H40.52a1.707,1.707,0,0,0,1.689-1.431l.579-3.474a16.444,16.444,0,0,0,5.955-3.442l3.3,1.237a1.707,1.707,0,0,0,2.084-.748l2.792-4.837A1.707,1.707,0,0,0,56.528,42.23Zm-4.336,4.891-4.12-1.543-.624.628A13.7,13.7,0,0,1,41.229,49.8l-.856.226-.723,4.336H35.806l-.723-4.336-.856-.226a13.7,13.7,0,0,1-6.219-3.594l-.624-.628-4.12,1.543-1.922-3.329L24.736,41l-.231-.854a13.778,13.778,0,0,1,0-7.187l.231-.854L21.342,29.31l1.922-3.329,4.12,1.543.624-.628A13.7,13.7,0,0,1,34.227,23.3l.856-.226.723-4.336H39.65l.723,4.336.856.226A13.7,13.7,0,0,1,47.448,26.9l.624.628,4.12-1.543,1.922,3.329L50.72,32.1l.231.854a13.778,13.778,0,0,1,0,7.187L50.72,41l3.393,2.794Z" transform="translate(0 0)" fill="#fcfcfd"/>
  </g>
</svg>
