<svg id="tractor-svgrepo-com" xmlns="http://www.w3.org/2000/svg" width="34.483" height="27.094" viewBox="0 0 34.483 27.094">
  <g id="Grupo_16063" data-name="Grupo 16063" transform="translate(0 0)">
    <g id="Grupo_16062" data-name="Grupo 16062">
      <path id="Caminho_8991" data-name="Caminho 8991" d="M34.579,108.5a3.079,3.079,0,1,0,3.079,3.079A3.082,3.082,0,0,0,34.579,108.5Zm0,4.926a1.847,1.847,0,1,1,1.847-1.847A1.849,1.849,0,0,1,34.579,113.426Z" transform="translate(-25.958 -93.106)" fill="#34a853"/>
      <path id="Caminho_8992" data-name="Caminho 8992" d="M31.4,40.76V33.931a.616.616,0,0,0-.616-.616H24.631V29a.616.616,0,0,0-.616-.616H21.552a.616.616,0,0,0-.616.616v4.31H17.857v-7.5a.616.616,0,0,0-.544-.612L5.542,23.821V21H4.31v2.676l-1.776-.209a.6.6,0,0,0-.481.151.616.616,0,0,0-.206.46v9.852a.6.6,0,0,0,.036.179,8.612,8.612,0,0,0,12.784,11.5.6.6,0,0,0,.111.022H27.309A3.692,3.692,0,1,0,31.4,40.76ZM22.168,29.621H23.4v3.695H22.168ZM3.079,24.772l13.547,1.593v6.95H14.778a.588.588,0,0,0-.111.022,8.594,8.594,0,0,0-11.588-.458ZM8.621,46.862a7.389,7.389,0,1,1,7.389-7.389A7.4,7.4,0,0,1,8.621,46.862ZM27.094,44.4H15.685a8.574,8.574,0,0,0,0-9.852H30.173V40.76A3.7,3.7,0,0,0,27.094,44.4Zm3.695,2.463A2.463,2.463,0,1,1,33.251,44.4,2.466,2.466,0,0,1,30.788,46.862Z" transform="translate(0 -21)" fill="#34a853"/>
      <path id="Caminho_8993" data-name="Caminho 8993" d="M116.312,105h-2.466A1.851,1.851,0,0,0,112,106.851v1.84a1.85,1.85,0,0,0,1.846,1.851h2.466a1.851,1.851,0,0,0,1.846-1.851v-1.84A1.85,1.85,0,0,0,116.312,105Zm.615,3.691a.618.618,0,0,1-.615.619h-.617v-1.232h-1.232v1.232h-.617a.61.61,0,0,1-.615-.619v-1.84a.618.618,0,0,1,.615-.619h2.466a.61.61,0,0,1,.615.619Z" transform="translate(-92.295 -90.222)" fill="#34a853"/>
    </g>
  </g>
</svg>
