<?xml version="1.0" encoding="iso-8859-1"?>
<!-- Generator: Adobe Illustrator 19.0.0, SVG Export Plug-In . SVG Version: 6.00 Build 0)  -->
<svg version="1.1" id="Layer_1" xmlns="http://www.w3.org/2000/svg" xmlns:xlink="http://www.w3.org/1999/xlink" x="0px" y="0px"
	 viewBox="0 0 512 512" style="enable-background:new 0 0 512 512;" xml:space="preserve">
<g>
	<g>
		<path d="M411.9,135.921c-41.596-41.596-96.923-64.505-155.787-64.505h-61.045V0L35.596,116.537l159.472,116.537v-71.417h61.045
			c71.711,0,130.052,58.341,130.052,130.052S327.824,421.76,256.113,421.76h-7.962V512h7.962
			c58.864,0,114.191-22.908,155.787-64.505c41.596-41.596,64.505-96.922,64.505-155.787
			C476.404,232.843,453.496,177.518,411.9,135.921z M400.639,436.235c-36.706,36.707-84.942,57.727-136.564,59.69V437.47
			c76.802-4.15,138.014-67.943,138.014-145.762c0-80.492-65.486-145.976-145.976-145.976h-76.969v55.981L62.587,116.537
			l116.556-85.176v55.981h76.969c54.61,0,105.937,21.252,144.526,59.841c38.589,38.589,59.841,89.916,59.841,144.526
			C460.479,346.318,439.228,397.646,400.639,436.235z"/>
	</g>
</g>
<g>
	<g>
		<rect x="88.9" y="90" transform="matrix(0.8 -0.6 0.6 0.8 -33.035 96.8196)" width="79.623" height="15.925"/>
	</g>
</g>
<g>
</g>
<g>
</g>
<g>
</g>
<g>
</g>
<g>
</g>
<g>
</g>
<g>
</g>
<g>
</g>
<g>
</g>
<g>
</g>
<g>
</g>
<g>
</g>
<g>
</g>
<g>
</g>
<g>
</g>
</svg>
