<?xml version="1.0" encoding="iso-8859-1"?>
<!-- Generator: Adobe Illustrator 19.0.0, SVG Export Plug-In . SVG Version: 6.00 Build 0)  -->
<svg version="1.1" id="Layer_1" xmlns="http://www.w3.org/2000/svg" xmlns:xlink="http://www.w3.org/1999/xlink" x="0px" y="0px"
	 viewBox="0 0 512 512" style="enable-background:new 0 0 512 512;" xml:space="preserve">
<g>
	<g>
		<path d="M357.674,0l-53.652,53.651l18.53,18.53H257c-58.762,0-113.993,22.868-155.517,64.393S37.091,233.329,37.091,292.09
			c0,58.762,22.868,113.993,64.393,155.517S198.239,512,257,512h7.964h0v-90.109H257c-71.572,0-129.801-58.228-129.801-129.801
			S185.428,162.29,257,162.29h65.551l-18.53,18.53l53.652,53.652l117.236-117.236L357.674,0z M326.547,180.819l34.458-34.458H257
			c-80.355,0-145.729,65.374-145.729,145.729c0,77.683,61.1,141.363,137.765,145.514v58.317
			c-51.52-1.961-99.654-22.941-136.29-59.576c-38.516-38.516-59.728-89.747-59.728-144.254s21.212-105.738,59.728-144.254
			C151.263,109.321,202.492,88.11,257,88.11v0h104.005l-34.458-34.458l31.127-31.127l94.71,94.71l-94.71,94.71L326.547,180.819z"/>
	</g>
</g>
<g>
	<g>
		
			<rect x="386.796" y="53.269" transform="matrix(0.7071 -0.7071 0.7071 0.7071 51.4617 305.7133)" width="15.928" height="74.935"/>
	</g>
</g>
<g>
</g>
<g>
</g>
<g>
</g>
<g>
</g>
<g>
</g>
<g>
</g>
<g>
</g>
<g>
</g>
<g>
</g>
<g>
</g>
<g>
</g>
<g>
</g>
<g>
</g>
<g>
</g>
<g>
</g>
</svg>
