<svg id="XMLID_791_" xmlns="http://www.w3.org/2000/svg" width="17.269" height="21.437" viewBox="0 0 17.269 21.437">
  <path id="XMLID_792_" d="M84.711,9.423A4.712,4.712,0,1,0,80,4.712,4.717,4.717,0,0,0,84.711,9.423Zm0-7.171a2.459,2.459,0,1,1-2.459,2.459A2.462,2.462,0,0,1,84.711,2.253Z" transform="translate(-76.076)" fill="#5a625b"/>
  <path id="XMLID_795_" d="M36.385,155.5a8.644,8.644,0,0,0-8.635,8.635,1.126,1.126,0,0,0,1.126,1.126H43.893a1.126,1.126,0,0,0,1.126-1.126A8.644,8.644,0,0,0,36.385,155.5ZM30.1,163.008a6.383,6.383,0,0,1,12.565,0Z" transform="translate(-27.75 -143.824)" fill="#5a625b"/>
</svg>
