<svg xmlns="http://www.w3.org/2000/svg" width="16.291" height="20.148" viewBox="0 0 16.291 20.148">
  <g id="Grupo_3020" data-name="Grupo 3020" transform="translate(-30.97 -157.983)">
    <path id="Caminho_3876" data-name="Caminho 3876" d="M39.234,169.946l2.519.079a2.57,2.57,0,0,1,.944.158,6,6,0,0,1,3.227,2.2,5.744,5.744,0,0,1,1.259,3.541l.079.709-.551.235a16.289,16.289,0,0,1-3.5.9,24.275,24.275,0,0,1-8.264,0,14.616,14.616,0,0,1-3.424-.9l-.551-.235v-.709a5.963,5.963,0,0,1,2.2-4.565,6.316,6.316,0,0,1,2.755-1.259A18.69,18.69,0,0,1,39.234,169.946Zm2.44,1.338-2.362-.079q-1.811,0-2.6.04a4.4,4.4,0,0,0-1.221.2,4.528,4.528,0,0,0-1.063.63,4.834,4.834,0,0,0-1.456,1.456,4.9,4.9,0,0,0-.747,2.008l-.079.314.551.158a16.271,16.271,0,0,0,2.99.63,24.477,24.477,0,0,0,6.768,0,16.293,16.293,0,0,0,2.992-.63l.551-.158-.079-.314a5.274,5.274,0,0,0-1.142-2.519,5,5,0,0,0-2.243-1.575A2.775,2.775,0,0,0,41.674,171.284Zm-3.7-13.222a8.241,8.241,0,0,1,1.259-.079,5.627,5.627,0,0,1,1.889.433,5.464,5.464,0,0,1,1.573,1.142A4.662,4.662,0,0,1,44,162a5.422,5.422,0,0,1-.237,2.873,6.33,6.33,0,0,1-1.692,2.557,4.071,4.071,0,0,1-2.282,1.221,4.3,4.3,0,0,1-2.48-.354,5.2,5.2,0,0,1-2.124-1.85,5.837,5.837,0,0,1-1.063-2.754,5.413,5.413,0,0,1,.393-2.755,4.491,4.491,0,0,1,1.81-2.085,3.566,3.566,0,0,1,.749-.472,6.366,6.366,0,0,1,.982-.316ZM36.4,160.345a3.814,3.814,0,0,0-1.1,2.675,4.676,4.676,0,0,0,.709,2.441,3.9,3.9,0,0,0,1.81,1.652,2.12,2.12,0,0,0,.512.2,4.27,4.27,0,0,0,.747.04,3.759,3.759,0,0,0,1.18-.158,4.466,4.466,0,0,0,2.085-2.085,4.176,4.176,0,0,0,.433-2.873,4.023,4.023,0,0,0-2.99-2.913A3.54,3.54,0,0,0,36.4,160.345Z" transform="translate(0 0)" fill="#5a625b"/>
  </g>
</svg>
