<svg xmlns="http://www.w3.org/2000/svg" width="31.101" height="24.436" viewBox="0 0 31.101 24.436">
  <g id="tractor-svgrepo-com" transform="translate(0 0)">
    <g id="Grupo_16063" data-name="Grupo 16063" transform="translate(0 0)">
      <g id="Grupo_16062" data-name="Grupo 16062">
        <path id="Caminho_8991" data-name="Caminho 8991" d="M34.277,108.5a2.777,2.777,0,1,0,2.777,2.777A2.78,2.78,0,0,0,34.277,108.5Zm0,4.443a1.666,1.666,0,1,1,1.666-1.666A1.668,1.668,0,0,1,34.277,112.943Z" transform="translate(-26.502 -94.616)" fill="#5a625b"/>
        <path id="Caminho_8992" data-name="Caminho 8992" d="M28.324,38.822V32.663a.555.555,0,0,0-.555-.555H22.215V28.22a.555.555,0,0,0-.555-.555H19.438a.555.555,0,0,0-.555.555v3.888H16.106V25.345a.555.555,0,0,0-.491-.552L5,23.544V21H3.888v2.414l-1.6-.188a.544.544,0,0,0-.434.137.556.556,0,0,0-.186.415v8.886a.54.54,0,0,0,.033.161,7.767,7.767,0,0,0,11.53,10.371.542.542,0,0,0,.1.02h11.3a3.33,3.33,0,1,0,3.693-4.393ZM19.993,28.775H21.1v3.332H19.993ZM2.777,24.4,15,25.839v6.269H13.329a.53.53,0,0,0-.1.02,7.751,7.751,0,0,0-10.452-.414Zm5,19.924a6.664,6.664,0,1,1,6.664-6.664A6.672,6.672,0,0,1,7.775,44.326ZM24.436,42.1H14.147a7.733,7.733,0,0,0,0-8.886H27.213v5.6A3.335,3.335,0,0,0,24.436,42.1Zm3.332,2.222A2.221,2.221,0,1,1,29.99,42.1,2.224,2.224,0,0,1,27.769,44.326Z" transform="translate(0 -21)" fill="#5a625b"/>
        <path id="Caminho_8993" data-name="Caminho 8993" d="M115.889,105h-2.224A1.669,1.669,0,0,0,112,106.669v1.66A1.669,1.669,0,0,0,113.665,110h2.224a1.669,1.669,0,0,0,1.665-1.669v-1.66A1.669,1.669,0,0,0,115.889,105Zm.554,3.329a.557.557,0,0,1-.554.559h-.556v-1.111h-1.111v1.111h-.556a.55.55,0,0,1-.554-.559v-1.66a.557.557,0,0,1,.554-.559h2.224a.55.55,0,0,1,.554.559Z" transform="translate(-94.228 -91.671)" fill="#5a625b"/>
      </g>
    </g>
  </g>
</svg>
