<svg xmlns="http://www.w3.org/2000/svg" width="41.055" height="41.1" viewBox="0 0 41.055 41.1">
  <path id="Caminho_9069" data-name="Caminho 9069" d="M174.082,194.4a2.8,2.8,0,0,0,1.948-.806,2.758,2.758,0,0,0,.806-1.948V176.58H191.9a2.8,2.8,0,0,0,1.948-.806,2.758,2.758,0,0,0,.806-1.948,2.713,2.713,0,0,0-2.731-2.731H176.857V156.03a2.731,2.731,0,1,0-5.462,0V171.1H156.33a2.731,2.731,0,0,0,0,5.462H171.4v15.065A2.66,2.66,0,0,0,174.082,194.4Z" transform="translate(-153.599 -153.299)" fill="#fcfcfd"/>
</svg>
